<?xml version="1.0" encoding="utf-8" standalone="yes"?>
<!DOCTYPE svg PUBLIC "-//W3C//DTD SVG 1.1//EN" "http://www.w3.org/Graphics/SVG/1.1/DTD/svg11.dtd">
<svg style="fill:none;stroke:none;fill-rule:evenodd;clip-rule:evenodd;stroke-linecap:round;stroke-linejoin:round;stroke-miterlimit:1.5;" version="1.1" xmlns="http://www.w3.org/2000/svg" xmlns:xlink="http://www.w3.org/1999/xlink" width="846" height="516" viewBox="0 0 846 516"><style class="text-font-style fontImports" data-font-family="Shantell Sans">@import url(https://fonts.googleapis.com/css2?family=Shantell+Sans:wght@300..800&amp;amp;display=block);</style><g id="items" style="isolation: isolate"><g id="blend" style="mix-blend-mode: normal"><g id="g-root-cp_0_g-0_4l2ptx1gipt6o-fill" data-item-order="-335149" transform="translate(20, 266)"></g><g id="g-root-sy_0_Vector_1uqjrk51gipts9-fill" data-item-order="-335145" transform="translate(742, 266)"></g><g id="g-root-cp_1_g-1_1qaq9fp1gipuki-fill" data-item-order="-335141" transform="translate(77, 263)"></g><g id="g-root-cp_2_g-2_1qaq9fp1gipukj-fill" data-item-order="-335137" transform="translate(137, 263)"></g><g id="g-root-cp_3_g-3_1hf396t1gipvd8-fill" data-item-order="-335133" transform="translate(197, 263)"></g><g id="g-root-cp_6_g-6_1czw85h1gipszp-fill" data-item-order="-335129" transform="translate(377, 263)"></g><g id="g-root-cp_5_g-5_14497wl1giptse-fill" data-item-order="-335125" transform="translate(317, 263)"></g><g id="g-root-cp_7_g-7_zofps51gipukn-fill" data-item-order="-335121" transform="translate(437, 263)"></g><g id="g-root-cp_4_g-4_v8m7np1gipvcw-fill" data-item-order="-335117" transform="translate(257, 263)"></g><g id="g-root-cp_8_g-8_mdlohx1gipszt-fill" data-item-order="-335113" transform="translate(497, 263)"></g><g id="g-root-cp_9_g-9_hxs6dh1gipts2-fill" data-item-order="-335109" transform="translate(557, 263)"></g><g id="g-root-cp_10_g-10_hxs6dh1gipts3-fill" data-item-order="-335105" transform="translate(617, 263)"></g><g id="g-root-cp_11_g-11_92564l1gipuks-fill" data-item-order="-335101" transform="translate(677, 263)"></g><g id="g-root-cp_12_g-12_4mbo051gipvd1-fill" data-item-order="-335097" transform="translate(737, 263)"></g><g id="g-root-ic_auth_zk2hc51gin2f8-fill" data-item-order="0" transform="translate(182, 218)"></g><g id="g-root-ic_clou_1luwuh11giiscu-fill" data-item-order="0" transform="translate(302, 218)"></g><g id="g-root-ic_conv_deudz91giem83-fill" data-item-order="0" transform="translate(422, 218)"></g><g id="g-root-ic_redi_1q88d391giww03-fill" data-item-order="0" transform="translate(542, 218)"></g><g id="g-root-ic_sync_zqb51h1giptl3-fill" data-item-order="0" transform="translate(662, 218)"></g><g id="g-root-ic_rota_qrjuit1gipv62-fill" data-item-order="0" transform="translate(62, 218)"></g><g id="g-root-tx_thebacke_1ltnwat1giwvlx-fill" data-item-order="0" transform="translate(626, 152)"><g id="tx_thebacke_1ltnwat1giwvlx-fill-merged" stroke="none" fill="#484848" fill-opacity="1"><g><text style="font: 10px &quot;Shantell Sans&quot;, cursive; white-space: pre;" transform="translate(64, 28)" font-size="10px" font-family="'Shantell Sans', cursive"><tspan x="-46.16" y="-5.2" dominant-baseline="ideographic">The backend sends </tspan><tspan x="-42.89" y="6.8" dominant-baseline="ideographic">structured results </tspan><tspan x="-50.34" y="18.8" dominant-baseline="ideographic">back to the frontend</tspan></text></g></g></g><g id="g-root-tx_thebacke_4j7dqd1giwwln-fill" data-item-order="0" transform="translate(512, 140)"><g id="tx_thebacke_4j7dqd1giwwln-fill-merged" stroke="none" fill="#484848" fill-opacity="1"><g><text style="font: 10px &quot;Shantell Sans&quot;, cursive; white-space: pre;" transform="translate(58, 34)" font-size="10px" font-family="'Shantell Sans', cursive"><tspan x="-32.31" y="-11.2" dominant-baseline="ideographic">The backend </tspan><tspan x="-33.98" y="0.8" dominant-baseline="ideographic">identifies key </tspan><tspan x="-42.16" y="12.8" dominant-baseline="ideographic">entities from the </tspan><tspan x="-22.44" y="24.8" dominant-baseline="ideographic">message</tspan></text></g></g></g><g id="g-root-tx_thefront_v5hxdx1giwwll-fill" data-item-order="0" transform="translate(386, 152)"><g id="tx_thefront_v5hxdx1giwwll-fill-merged" stroke="none" fill="#484848" fill-opacity="1"><g><text style="font: 10px &quot;Shantell Sans&quot;, cursive; white-space: pre;" transform="translate(64, 28)" font-size="10px" font-family="'Shantell Sans', cursive"><tspan x="-48.66" y="-5.2" dominant-baseline="ideographic">The frontend sends </tspan><tspan x="-48.56" y="6.8" dominant-baseline="ideographic">the message to the </tspan><tspan x="-21.83" y="18.8" dominant-baseline="ideographic">backend</tspan></text></g></g></g><g id="g-root-tx_thebacke_4hyfk51giwufj-fill" data-item-order="0" transform="translate(272, 152)"><g id="tx_thebacke_4hyfk51giwufj-fill-merged" stroke="none" fill="#484848" fill-opacity="1"><g><text style="font: 10px &quot;Shantell Sans&quot;, cursive; white-space: pre;" transform="translate(58, 28)" font-size="10px" font-family="'Shantell Sans', cursive"><tspan x="-31.8" y="-5.2" dominant-baseline="ideographic">The backend </tspan><tspan x="-44.8" y="6.8" dominant-baseline="ideographic">interacts with the </tspan><tspan x="-26.13" y="18.8" dominant-baseline="ideographic">Gmail API</tspan></text></g></g></g><g id="g-root-tx_thefront_13zvzgl1giwtmt-fill" data-item-order="0" transform="translate(152, 152)"><g id="tx_thefront_13zvzgl1giwtmt-fill-merged" stroke="none" fill="#484848" fill-opacity="1"><g><text style="font: 10px &quot;Shantell Sans&quot;, cursive; white-space: pre;" transform="translate(58, 28)" font-size="10px" font-family="'Shantell Sans', cursive"><tspan x="-32.87" y="-5.2" dominant-baseline="ideographic">The frontend </tspan><tspan x="-44.53" y="6.8" dominant-baseline="ideographic">obtains an access </tspan><tspan x="-15.02" y="18.8" dominant-baseline="ideographic">token</tspan></text></g></g></g><g id="g-root-tx_theuseri_9i6d1giww7f-fill" data-item-order="0" transform="translate(32, 164)"><g id="tx_theuseri_9i6d1giww7f-fill-merged" stroke="none" fill="#484848" fill-opacity="1"><g><text style="font: 10px &quot;Shantell Sans&quot;, cursive; white-space: pre;" transform="translate(58, 22)" font-size="10px" font-family="'Shantell Sans', cursive"><tspan x="-43.68" y="0.8" dominant-baseline="ideographic">The user initiates </tspan><tspan x="-37.91" y="12.8" dominant-baseline="ideographic">the application</tspan></text></g></g></g><g id="g-root-tx_backende_qqawcl1giwu82-fill" data-item-order="0" transform="translate(524, 86)"><g id="tx_backende_qqawcl1giwu82-fill-merged" stroke="none" fill="#484848" fill-opacity="1"><g><text style="font: bold 12px &quot;Shantell Sans&quot;, cursive; white-space: pre;" transform="translate(46, 34)" font-weight="bold" font-size="12px" font-family="'Shantell Sans', cursive"><tspan x="-28.43" y="-6.4" dominant-baseline="ideographic">Backend </tspan><tspan x="-28.67" y="8" dominant-baseline="ideographic">Extracts </tspan><tspan x="-26.09" y="22.4" dominant-baseline="ideographic">Entities</tspan></text></g></g></g><g id="g-root-tx_frontend_1lrsh1h1giwwlk-fill" data-item-order="0" transform="translate(398, 86)"><g id="tx_frontend_1lrsh1h1giwwlk-fill-merged" stroke="none" fill="#484848" fill-opacity="1"><g><text style="font: bold 12px &quot;Shantell Sans&quot;, cursive; white-space: pre;" transform="translate(52, 40)" font-weight="bold" font-size="12px" font-family="'Shantell Sans', cursive"><tspan x="-30.84" y="-13.6" dominant-baseline="ideographic">Frontend </tspan><tspan x="-20.34" y="0.8" dominant-baseline="ideographic">Sends </tspan><tspan x="-38.57" y="15.2" dominant-baseline="ideographic">Message to </tspan><tspan x="-28.43" y="29.6" dominant-baseline="ideographic">Backend</tspan></text></g></g></g><g id="g-root-tx_backendu_hssgud1giww0e-fill" data-item-order="0" transform="translate(272, 110)"><g id="tx_backendu_hssgud1giww0e-fill-merged" stroke="none" fill="#484848" fill-opacity="1"><g><text style="font: bold 12px &quot;Shantell Sans&quot;, cursive; white-space: pre;" transform="translate(58, 28)" font-weight="bold" font-size="12px" font-family="'Shantell Sans', cursive"><tspan x="-44.22" y="0.8" dominant-baseline="ideographic">Backend Uses </tspan><tspan x="-33.74" y="15.2" dominant-baseline="ideographic">Gmail API</tspan></text></g></g></g><g id="g-root-tx_useropen_dbq0jp1giwumi-fill" data-item-order="0" transform="translate(38, 122)"><g id="tx_useropen_dbq0jp1giwumi-fill-merged" stroke="none" fill="#484848" fill-opacity="1"><g><text style="font: bold 12px &quot;Shantell Sans&quot;, cursive; white-space: pre;" transform="translate(52, 28)" font-weight="bold" font-size="12px" font-family="'Shantell Sans', cursive"><tspan x="-37.01" y="0.8" dominant-baseline="ideographic">User Opens </tspan><tspan x="-34.08" y="15.2" dominant-baseline="ideographic">React App</tspan></text></g></g></g><g id="g-root-tx_backendr_40cp11giwu84-fill" data-item-order="0" transform="translate(638, 86)"><g id="tx_backendr_40cp11giwu84-fill-merged" stroke="none" fill="#484848" fill-opacity="1"><g><text style="font: bold 12px &quot;Shantell Sans&quot;, cursive; white-space: pre;" transform="translate(52, 40)" font-weight="bold" font-size="12px" font-family="'Shantell Sans', cursive"><tspan x="-28.42" y="-13.6" dominant-baseline="ideographic">Backend </tspan><tspan x="-26.88" y="0.8" dominant-baseline="ideographic">Returns </tspan><tspan x="-35.89" y="15.2" dominant-baseline="ideographic">Structured </tspan><tspan x="-25.04" y="29.6" dominant-baseline="ideographic">Results</tspan></text></g></g></g><g id="g-root-tx_frontend_1haq0qt1giwv7o-fill" data-item-order="0" transform="translate(152, 98)"><g id="tx_frontend_1haq0qt1giwv7o-fill-merged" stroke="none" fill="#484848" fill-opacity="1"><g><text style="font: bold 12px &quot;Shantell Sans&quot;, cursive; white-space: pre;" transform="translate(58, 34)" font-weight="bold" font-size="12px" font-family="'Shantell Sans', cursive"><tspan x="-28.77" y="-6.4" dominant-baseline="ideographic">Frontend </tspan><tspan x="-29.53" y="8" dominant-baseline="ideographic">Retrieves </tspan><tspan x="-41.34" y="22.4" dominant-baseline="ideographic">Access Token</tspan></text></g></g></g><g id="g-root-tx_thefront_1qclrut1giww09-fill" data-item-order="0" transform="translate(692, 398)"><g id="tx_thefront_1qclrut1giww09-fill-merged" stroke="none" fill="#484848" fill-opacity="1"><g><text style="font: 10px &quot;Shantell Sans&quot;, cursive; white-space: pre;" transform="translate(58, 28)" font-size="10px" font-family="'Shantell Sans', cursive"><tspan x="-31.39" y="-5.2" dominant-baseline="ideographic">The frontend </tspan><tspan x="-29.16" y="6.8" dominant-baseline="ideographic">displays the </tspan><tspan x="-44.73" y="18.8" dominant-baseline="ideographic">results to the user</tspan></text></g></g></g><g id="g-root-ic_next_qqawcl1giofm3-fill" data-item-order="0" transform="translate(242, 278)"></g><g id="g-root-ic_mess_7r77p1gik8p1-fill" data-item-order="0" transform="translate(362, 278)"></g><g id="g-root-ic_1_1lynozp1gifytr-fill" data-item-order="0" transform="translate(482, 278)"></g><g id="g-root-ic_api_1qd85s51giy8sr-fill" data-item-order="0" transform="translate(602, 278)"></g><g id="g-root-ic_awar_145i62t1giu1or-fill" data-item-order="0" transform="translate(722, 278)"></g><g id="g-root-tx_aipowere_1d156bp1gipv5y-fill" data-item-order="0" transform="translate(209, 38)"><g id="tx_aipowere_1d156bp1gipv5y-fill-merged" stroke="none" fill="#484848" fill-opacity="1"><g><text style="font: bold 20px &quot;Shantell Sans&quot;, cursive; white-space: pre;" transform="translate(214, 22)" font-weight="bold" font-size="20px" font-family="'Shantell Sans', cursive"><tspan x="-201.88" y="13.6" dominant-baseline="ideographic">AI-Powered Email Assistant Workflow</tspan></text></g></g></g><g id="g-root-tx_usersign_1cy0w1x1giwwem-fill" data-item-order="0" transform="translate(92, 344)"><g id="tx_usersign_1cy0w1x1giwwem-fill-merged" stroke="none" fill="#484848" fill-opacity="1"><g><text style="font: bold 12px &quot;Shantell Sans&quot;, cursive; white-space: pre;" transform="translate(58, 34)" font-weight="bold" font-size="12px" font-family="'Shantell Sans', cursive"><tspan x="-43.77" y="-6.4" dominant-baseline="ideographic">User Signs In </tspan><tspan x="-40.51" y="8" dominant-baseline="ideographic">with Google </tspan><tspan x="-21.78" y="22.4" dominant-baseline="ideographic">OAuth</tspan></text></g></g></g><g id="g-root-tx_frontend_qrjuit1giwwe8-fill" data-item-order="0" transform="translate(212, 344)"><g id="tx_frontend_qrjuit1giwwe8-fill-merged" stroke="none" fill="#484848" fill-opacity="1"><g><text style="font: bold 12px &quot;Shantell Sans&quot;, cursive; white-space: pre;" transform="translate(58, 34)" font-weight="bold" font-size="12px" font-family="'Shantell Sans', cursive"><tspan x="-30.84" y="-6.4" dominant-baseline="ideographic">Frontend </tspan><tspan x="-40.73" y="8" dominant-baseline="ideographic">Sends Token </tspan><tspan x="-37.22" y="22.4" dominant-baseline="ideographic">to Backend</tspan></text></g></g></g><g id="g-root-tx_usertype_4l2szp1giwvm2-fill" data-item-order="0" transform="translate(338, 344)"><g id="tx_usertype_4l2szp1giwvm2-fill-merged" stroke="none" fill="#484848" fill-opacity="1"><g><text style="font: bold 12px &quot;Shantell Sans&quot;, cursive; white-space: pre;" transform="translate(52, 28)" font-weight="bold" font-size="12px" font-family="'Shantell Sans', cursive"><tspan x="-35.46" y="0.8" dominant-baseline="ideographic">User Types </tspan><tspan x="-29.78" y="15.2" dominant-baseline="ideographic">Message</tspan></text></g></g></g><g id="g-root-tx_backendr_18k2t6t1giww78-fill" data-item-order="0" transform="translate(452, 344)"><g id="tx_backendr_18k2t6t1giww78-fill-merged" stroke="none" fill="#484848" fill-opacity="1"><g><text style="font: bold 12px &quot;Shantell Sans&quot;, cursive; white-space: pre;" transform="translate(58, 40)" font-weight="bold" font-size="12px" font-family="'Shantell Sans', cursive"><tspan x="-44.78" y="-13.6" dominant-baseline="ideographic">Backend Runs </tspan><tspan x="-24.27" y="0.8" dominant-baseline="ideographic">Intent-</tspan><tspan x="-38.52" y="15.2" dominant-baseline="ideographic">Recognition </tspan><tspan x="-25.43" y="29.6" dominant-baseline="ideographic">Pipeline</tspan></text></g></g></g><g id="g-root-tx_backendu_mdlrnp1giwvf2-fill" data-item-order="0" transform="translate(572, 344)"><g id="tx_backendu_mdlrnp1giwvf2-fill-merged" stroke="none" fill="#484848" fill-opacity="1"><g><text style="font: bold 12px &quot;Shantell Sans&quot;, cursive; white-space: pre;" transform="translate(58, 34)" font-weight="bold" font-size="12px" font-family="'Shantell Sans', cursive"><tspan x="-44.22" y="-6.4" dominant-baseline="ideographic">Backend Uses </tspan><tspan x="-34.87" y="8" dominant-baseline="ideographic">Mistral AI </tspan><tspan x="-13.36" y="22.4" dominant-baseline="ideographic">API</tspan></text></g></g></g><g id="g-root-tx_frontend_74q4l1giwveo-fill" data-item-order="0" transform="translate(704, 344)"><g id="tx_frontend_74q4l1giwveo-fill-merged" stroke="none" fill="#484848" fill-opacity="1"><g><text style="font: bold 12px &quot;Shantell Sans&quot;, cursive; white-space: pre;" transform="translate(46, 34)" font-weight="bold" font-size="12px" font-family="'Shantell Sans', cursive"><tspan x="-30.84" y="-6.4" dominant-baseline="ideographic">Frontend </tspan><tspan x="-27.79" y="8" dominant-baseline="ideographic">Renders </tspan><tspan x="-25.04" y="22.4" dominant-baseline="ideographic">Results</tspan></text></g></g></g><g id="g-root-tx_theusera_v7dcn91giwvlz-fill" data-item-order="0" transform="translate(86, 398)"><g id="tx_theusera_v7dcn91giwvlz-fill-merged" stroke="none" fill="#484848" fill-opacity="1"><g><text style="font: 10px &quot;Shantell Sans&quot;, cursive; white-space: pre;" transform="translate(64, 28)" font-size="10px" font-family="'Shantell Sans', cursive"><tspan x="-22.51" y="-5.2" dominant-baseline="ideographic">The user </tspan><tspan x="-49.08" y="6.8" dominant-baseline="ideographic">authenticates using </tspan><tspan x="-35.91" y="18.8" dominant-baseline="ideographic">Google OAuth</tspan></text></g></g></g><g id="g-root-tx_theuseri_1lvjbk51giwumb-fill" data-item-order="0" transform="translate(332, 386)"><g id="tx_theuseri_1lvjbk51giwumb-fill-merged" stroke="none" fill="#484848" fill-opacity="1"><g><text style="font: 10px &quot;Shantell Sans&quot;, cursive; white-space: pre;" transform="translate(58, 28)" font-size="10px" font-family="'Shantell Sans', cursive"><tspan x="-43.77" y="-5.2" dominant-baseline="ideographic">The user inputs a </tspan><tspan x="-38.22" y="6.8" dominant-baseline="ideographic">message in the </tspan><tspan x="-35.41" y="18.8" dominant-baseline="ideographic">chat interface</tspan></text></g></g></g><g id="g-root-tx_thefront_dgpt8l1giwutd-fill" data-item-order="0" transform="translate(218, 398)"><g id="tx_thefront_dgpt8l1giwutd-fill-merged" stroke="none" fill="#484848" fill-opacity="1"><g><text style="font: 10px &quot;Shantell Sans&quot;, cursive; white-space: pre;" transform="translate(52, 34)" font-size="10px" font-family="'Shantell Sans', cursive"><tspan x="-33.1" y="-11.2" dominant-baseline="ideographic">The frontend </tspan><tspan x="-34.38" y="0.8" dominant-baseline="ideographic">transmits the </tspan><tspan x="-31.69" y="12.8" dominant-baseline="ideographic">token to the </tspan><tspan x="-21.83" y="24.8" dominant-baseline="ideographic">backend</tspan></text></g></g></g><g id="g-root-tx_thebacke_zp2a111giwtu5-fill" data-item-order="0" transform="translate(446, 410)"><g id="tx_thebacke_zp2a111giwtu5-fill-merged" stroke="none" fill="#484848" fill-opacity="1"><g><text style="font: 10px &quot;Shantell Sans&quot;, cursive; white-space: pre;" transform="translate(64, 34)" font-size="10px" font-family="'Shantell Sans', cursive"><tspan x="-32.31" y="-11.2" dominant-baseline="ideographic">The backend </tspan><tspan x="-34.47" y="0.8" dominant-baseline="ideographic">processes the </tspan><tspan x="-49.24" y="12.8" dominant-baseline="ideographic">message to identify </tspan><tspan x="-16.11" y="24.8" dominant-baseline="ideographic">intent</tspan></text></g></g></g><g id="g-root-tx_thebacke_92rqdh1giwtu7-fill" data-item-order="0" transform="translate(566, 398)"><g id="tx_thebacke_92rqdh1giwtu7-fill-merged" stroke="none" fill="#484848" fill-opacity="1"><g><text style="font: 10px &quot;Shantell Sans&quot;, cursive; white-space: pre;" transform="translate(64, 34)" font-size="10px" font-family="'Shantell Sans', cursive"><tspan x="-31.68" y="-11.2" dominant-baseline="ideographic">The backend </tspan><tspan x="-46.92" y="0.8" dominant-baseline="ideographic">utilizes the Mistral </tspan><tspan x="-40.52" y="12.8" dominant-baseline="ideographic">AI API for reply </tspan><tspan x="-27.27" y="24.8" dominant-baseline="ideographic">generation</tspan></text></g></g></g><g id="g-root-ic_logo_74q4l1gir7k9-fill" data-item-order="0" transform="translate(122, 278)"></g><g id="g-root-cp_0_g-0_4l2ptx1gipt6o-stroke" data-item-order="-335149" transform="translate(20, 266)"><g id="cp_0_g-0_4l2ptx1gipt6o-stroke" fill="none" stroke-linecap="round" stroke-linejoin="round" stroke-miterlimit="4" stroke="#484848" stroke-width="4" stroke-opacity="1"><g><path d="M 67 10L 10 10M 127.0306 10L 72.9706 10M 187 10L 133 10M 247 10L 192.9701 10M 307 10L 252.9703 10M 367.0306 10L 312.9701 10M 427.0299 10L 373 10M 487 10L 433 10M 547.0297 10L 492.9801 10M 607.0299 10L 553 10M 667.0306 10L 613 10M 673 10L 727 10M 67 10C 48 8.7 28.9 11.7 10 10M 127 10C 109.1 11.6 90.9 11.2 73 10M 187 10C 169 10.9 151 10.1 133 10M 247 10C 229 10 211 9.9 193 10M 307 10C 289.1 11.8 270.9 8.4 253 10M 367 10C 349 10.2 330.9 11.3 313 10M 427 10C 409 10.7 391 8.8 373 10M 487 10C 469 10.9 451 8.9 433 10M 547 10C 529.1 8.3 510.9 11.7 493 10M 607 10C 589 10.9 571 11 553 10M 667 10C 649 11.1 630.9 8.4 613 10M 673 10C 691 10.2 709 10.3 727 10M 67 10C 56.7 11.4 45.5 13.7 35.7 10C 27.7 6.9 18.6 10.7 10 10M 127 10C 121.3 8.9 115.1 8.4 109.5 10C 104 11.6 98.1 9.6 92.3 10C 85.9 10.5 79.2 8.4 73 10M 187 10C 177.6 12.9 167.1 8.1 157.4 10C 149.4 11.6 141.1 9.5 133 10M 247 10C 241.1 8.8 234.9 8.5 229.1 10C 222.7 11.6 215.6 8 209.3 10C 204.1 11.7 198.4 9.4 193 10M 307 10C 298.6 6.8 288.7 12.3 280.1 10C 271.3 7.7 261.6 7.3 253 10M 367 10C 358.7 11.1 350.3 11.1 342 10C 332.4 8.8 322.6 10.2 313 10M 427 10C 418.8 8.2 410.2 9.7 401.8 10C 392.2 10.3 382.6 10.1 373 10M 487 10C 478.5 10.3 470 11.2 461.6 10C 452.2 8.6 442.3 12 433 10M 547 10C 541.5 9.2 535.7 8.3 530.4 10C 524.3 12 517.6 10.8 511.2 10C 505.2 9.2 498.9 8.4 493 10M 607 10C 601.1 11.1 594.9 8.7 589 10C 583.1 11.4 576.9 9.9 570.8 10C 564.9 10.1 558.8 11 553 10M 667 10C 659.5 6.9 650.3 12.6 642.6 10C 633.2 6.8 622.8 9.2 613 10M 673 10C 678.2 11.8 684.1 11.4 689.4 10C 695.7 8.4 702.4 10.5 708.8 10C 714.9 9.6 721.1 11.3 727 10"></path></g></g></g><g id="g-root-sy_0_Vector_1uqjrk51gipts9-stroke" data-item-order="-335145" transform="translate(742, 266)"><g id="sy_0_Vector_1uqjrk51gipts9-stroke" fill="none" stroke-linecap="round" stroke-linejoin="round" stroke-miterlimit="4" stroke="#484848" stroke-width="4" stroke-opacity="1"><g><path d="M 64.17 10L 10 10M 64.2 10C 46.2 11.1 28 10.4 10 10M 64.2 10C 55.3 13.2 44.7 13.3 35.9 10C 27.8 7 18.5 11.2 10 10"></path><path d="M 55.7 19.2L 64.9 10L 55.7 0.8M 55.7 19.2C 58 15.5 61.6 12.8 64.9 10C 61.6 7.2 58.8 3.8 55.7 0.8M 55.7 19.2C 57.5 15.3 61 11.8 64.9 10C 61.2 7.8 58.3 4.3 55.7 0.8" stroke-dasharray="none"></path></g></g></g><g id="g-root-cp_1_g-1_1qaq9fp1gipuki-stroke" data-item-order="-335141" transform="translate(77, 263)"><g id="cp_1_g-1_1qaq9fp1gipuki-stroke" fill="none" stroke-linecap="round" stroke-linejoin="round" stroke-miterlimit="4" stroke="#484848" stroke-width="4" stroke-opacity="1"><g><path d="M 16 13C 16 14.6569 14.6569 16 13 16C 11.3432 16 10 14.6569 10 13C 10 11.3431 11.3432 10 13 10C 14.6569 10 16 11.3431 16 13ZM 16 13C 16 14.7 14.6 16.4 13 16C 11.4 15.6 10.1 14.7 10 13C 9.9 11.3 11.4 9.7 13 10C 14.6 10.3 16.2 11.3 16 13M 16 13C 15.6 14.6 14.6 16.4 13 16C 11.4 15.5 9.8 14.6 10 13C 10.2 11.4 11.3 9.8 13 10C 14.6 10.2 15.4 11.4 16 13"></path></g></g></g><g id="g-root-cp_2_g-2_1qaq9fp1gipukj-stroke" data-item-order="-335137" transform="translate(137, 263)"><g id="cp_2_g-2_1qaq9fp1gipukj-stroke" fill="none" stroke-linecap="round" stroke-linejoin="round" stroke-miterlimit="4" stroke="#484848" stroke-width="4" stroke-opacity="1"><g><path d="M 16 13C 16 14.6569 14.6568 16 13 16C 11.3431 16 10 14.6569 10 13C 10 11.3431 11.3431 10 13 10C 14.6568 10 16 11.3431 16 13ZM 16 13C 15.7 14.6 14.7 15.8 13 16C 11.4 16.2 9.5 14.6 10 13C 10.5 11.4 11.3 9.8 13 10C 14.6 10.2 16.2 11.4 16 13M 16 13C 16.1 14.7 14.7 16 13 16C 11.3 16 10.6 14.6 10 13C 9.4 11.4 11.4 9.8 13 10C 14.6 10.2 15.9 11.3 16 13"></path></g></g></g><g id="g-root-cp_3_g-3_1hf396t1gipvd8-stroke" data-item-order="-335133" transform="translate(197, 263)"><g id="cp_3_g-3_1hf396t1gipvd8-stroke" fill="none" stroke-linecap="round" stroke-linejoin="round" stroke-miterlimit="4" stroke="#484848" stroke-width="4" stroke-opacity="1"><g><path d="M 16 13C 16 14.6569 14.6568 16 13 16C 11.3431 16 10 14.6569 10 13C 10 11.3431 11.3431 10 13 10C 14.6568 10 16 11.3431 16 13ZM 16 13C 15.6 14.6 14.5 16.6 13 16C 11.5 15.4 10.2 14.7 10 13C 9.8 11.4 11.3 9.9 13 10C 14.7 10.1 16.1 11.3 16 13M 16 13C 16.2 14.7 14.7 16.1 13 16C 11.3 15.9 10.4 14.6 10 13C 9.6 11.4 11.4 9.6 13 10C 14.6 10.4 16.5 11.4 16 13"></path></g></g></g><g id="g-root-cp_6_g-6_1czw85h1gipszp-stroke" data-item-order="-335129" transform="translate(377, 263)"><g id="cp_6_g-6_1czw85h1gipszp-stroke" fill="none" stroke-linecap="round" stroke-linejoin="round" stroke-miterlimit="4" stroke="#484848" stroke-width="4" stroke-opacity="1"><g><path d="M 16 13C 16 14.6569 14.6569 16 13 16C 11.3431 16 10 14.6569 10 13C 10 11.3431 11.3431 10 13 10C 14.6569 10 16 11.3431 16 13ZM 16 13C 15.5 14.6 14.7 15.9 13 16C 11.3 16 9.9 14.7 10 13C 10.1 11.3 11.4 10.2 13 10C 14.6 9.8 15.8 11.3 16 13M 16 13C 16.4 14.6 14.6 15.6 13 16C 11.4 16.4 10.3 14.6 10 13C 9.7 11.4 11.3 10.2 13 10C 14.6 9.8 15.9 11.3 16 13"></path></g></g></g><g id="g-root-cp_5_g-5_14497wl1giptse-stroke" data-item-order="-335125" transform="translate(317, 263)"><g id="cp_5_g-5_14497wl1giptse-stroke" fill="none" stroke-linecap="round" stroke-linejoin="round" stroke-miterlimit="4" stroke="#484848" stroke-width="4" stroke-opacity="1"><g><path d="M 16 13C 16 14.6569 14.6568 16 13 16C 11.3431 16 10 14.6569 10 13C 10 11.3431 11.3431 10 13 10C 14.6568 10 16 11.3431 16 13ZM 16 13C 15.8 14.7 14.6 15.4 13 16C 11.4 16.6 9.9 14.7 10 13C 10.1 11.3 11.4 10.5 13 10C 14.6 9.5 16.3 11.4 16 13M 16 13C 15.7 14.6 14.6 16.2 13 16C 11.4 15.8 10.2 14.7 10 13C 9.8 11.4 11.4 10.5 13 10C 14.6 9.5 15.5 11.4 16 13"></path></g></g></g><g id="g-root-cp_7_g-7_zofps51gipukn-stroke" data-item-order="-335121" transform="translate(437, 263)"><g id="cp_7_g-7_zofps51gipukn-stroke" fill="none" stroke-linecap="round" stroke-linejoin="round" stroke-miterlimit="4" stroke="#484848" stroke-width="4" stroke-opacity="1"><g><path d="M 16 13C 16 14.6569 14.6569 16 13 16C 11.3432 16 10 14.6569 10 13C 10 11.3431 11.3432 10 13 10C 14.6569 10 16 11.3431 16 13ZM 16 13C 15.9 14.7 14.7 15.9 13 16C 11.3 16.1 10.6 14.5 10 13C 9.4 11.5 11.3 9.9 13 10C 14.7 10.1 16.4 11.4 16 13M 16 13C 16.1 14.7 14.6 15.6 13 16C 11.4 16.4 10.3 14.6 10 13C 9.7 11.4 11.4 10.5 13 10C 14.6 9.5 16.3 11.4 16 13"></path></g></g></g><g id="g-root-cp_4_g-4_v8m7np1gipvcw-stroke" data-item-order="-335117" transform="translate(257, 263)"><g id="cp_4_g-4_v8m7np1gipvcw-stroke" fill="none" stroke-linecap="round" stroke-linejoin="round" stroke-miterlimit="4" stroke="#484848" stroke-width="4" stroke-opacity="1"><g><path d="M 16 13C 16 14.6569 14.6568 16 13 16C 11.3431 16 10 14.6569 10 13C 10 11.3431 11.3431 10 13 10C 14.6568 10 16 11.3431 16 13ZM 16 13C 15.7 14.6 14.6 16.6 13 16C 11.4 15.4 10.4 14.6 10 13C 9.6 11.4 11.4 9.6 13 10C 14.6 10.4 15.6 11.4 16 13M 16 13C 16.3 14.6 14.7 15.8 13 16C 11.4 16.2 10.1 14.7 10 13C 9.9 11.3 11.3 10 13 10C 14.7 10 16.2 11.3 16 13"></path></g></g></g><g id="g-root-cp_8_g-8_mdlohx1gipszt-stroke" data-item-order="-335113" transform="translate(497, 263)"><g id="cp_8_g-8_mdlohx1gipszt-stroke" fill="none" stroke-linecap="round" stroke-linejoin="round" stroke-miterlimit="4" stroke="#484848" stroke-width="4" stroke-opacity="1"><g><path d="M 16 13C 16 14.6569 14.6569 16 13 16C 11.3431 16 10 14.6569 10 13C 10 11.3431 11.3431 10 13 10C 14.6569 10 16 11.3431 16 13ZM 16 13C 16 14.7 14.6 16.6 13 16C 11.4 15.4 10.6 14.6 10 13C 9.4 11.4 11.4 10.2 13 10C 14.6 9.8 16.1 11.3 16 13M 16 13C 16.5 14.6 14.6 16.2 13 16C 11.4 15.8 9.6 14.6 10 13C 10.4 11.4 11.4 10.5 13 10C 14.6 9.5 16.4 11.4 16 13"></path></g></g></g><g id="g-root-cp_9_g-9_hxs6dh1gipts2-stroke" data-item-order="-335109" transform="translate(557, 263)"><g id="cp_9_g-9_hxs6dh1gipts2-stroke" fill="none" stroke-linecap="round" stroke-linejoin="round" stroke-miterlimit="4" stroke="#484848" stroke-width="4" stroke-opacity="1"><g><path d="M 16 13C 16 14.6569 14.6569 16 13 16C 11.3431 16 10 14.6569 10 13C 10 11.3431 11.3431 10 13 10C 14.6569 10 16 11.3431 16 13ZM 16 13C 16.2 14.6 14.7 16 13 16C 11.3 16 9.9 14.7 10 13C 10.1 11.3 11.4 9.5 13 10C 14.6 10.5 16.1 11.3 16 13M 16 13C 15.9 14.7 14.6 15.8 13 16C 11.4 16.2 9.5 14.6 10 13C 10.5 11.4 11.3 9.9 13 10C 14.7 10.1 16.3 11.4 16 13"></path></g></g></g><g id="g-root-cp_10_g-10_hxs6dh1gipts3-stroke" data-item-order="-335105" transform="translate(617, 263)"><g id="cp_10_g-10_hxs6dh1gipts3-stroke" fill="none" stroke-linecap="round" stroke-linejoin="round" stroke-miterlimit="4" stroke="#484848" stroke-width="4" stroke-opacity="1"><g><path d="M 16 13C 16 14.6569 14.6569 16 13 16C 11.3431 16 10 14.6569 10 13C 10 11.3431 11.3431 10 13 10C 14.6569 10 16 11.3431 16 13ZM 16 13C 15.9 14.7 14.6 15.8 13 16C 11.4 16.2 10.2 14.6 10 13C 9.8 11.4 11.4 10.3 13 10C 14.6 9.8 16 11.3 16 13M 16 13C 15.6 14.6 14.7 15.8 13 16C 11.3 16.2 9.7 14.6 10 13C 10.3 11.4 11.4 9.6 13 10C 14.6 10.3 15.7 11.4 16 13"></path></g></g></g><g id="g-root-cp_11_g-11_92564l1gipuks-stroke" data-item-order="-335101" transform="translate(677, 263)"><g id="cp_11_g-11_92564l1gipuks-stroke" fill="none" stroke-linecap="round" stroke-linejoin="round" stroke-miterlimit="4" stroke="#484848" stroke-width="4" stroke-opacity="1"><g><path d="M 16 13C 16 14.6569 14.6569 16 13 16C 11.3431 16 10 14.6569 10 13C 10 11.3431 11.3431 10 13 10C 14.6569 10 16 11.3431 16 13ZM 16 13C 16 14.7 14.7 15.9 13 16C 11.3 16 10.1 14.7 10 13C 9.9 11.3 11.4 10.3 13 10C 14.6 9.7 15.6 11.4 16 13M 16 13C 16.6 14.6 14.6 16.3 13 16C 11.4 15.7 9.6 14.6 10 13C 10.4 11.4 11.4 10.5 13 10C 14.6 9.5 16.5 11.4 16 13"></path></g></g></g><g id="g-root-cp_12_g-12_4mbo051gipvd1-stroke" data-item-order="-335097" transform="translate(737, 263)"><g id="cp_12_g-12_4mbo051gipvd1-stroke" fill="none" stroke-linecap="round" stroke-linejoin="round" stroke-miterlimit="4" stroke="#484848" stroke-width="4" stroke-opacity="1"><g><path d="M 16 13C 16 14.6569 14.6568 16 13 16C 11.3431 16 10 14.6569 10 13C 10 11.3431 11.3431 10 13 10C 14.6568 10 16 11.3431 16 13ZM 16 13C 16.5 14.6 14.5 16.6 13 16C 11.5 15.4 10.3 14.6 10 13C 9.7 11.4 11.3 9.9 13 10C 14.7 10.1 16.3 11.4 16 13M 16 13C 16.2 14.6 14.6 16.5 13 16C 11.4 15.5 10.2 14.6 10 13C 9.8 11.4 11.4 10.3 13 10C 14.6 9.7 15.7 11.4 16 13"></path></g></g></g><g id="g-root-ic_auth_zk2hc51gin2f8-stroke" data-item-order="0" transform="translate(182, 218)"><g id="ic_auth_zk2hc51gin2f8-stroke" fill="none" stroke-linecap="round" stroke-linejoin="round" stroke-miterlimit="4" stroke="#484848" stroke-width="2" stroke-opacity="1"><g><path d="M 10.75 28C 10.75 37.526913 18.473087 45.25 28 45.25C 37.526913 45.25 45.25 37.526913 45.25 28C 45.25 18.473087 37.526913 10.75 28 10.75C 18.473087 10.75 10.75 18.473087 10.75 28M 10 10M 32.185001 27.835001L 27.684999 23.335001C 26.244436 21.778904 24.068466 21.134787 22.012989 21.656012C 19.957512 22.177235 18.351402 23.780401 17.826412 25.834921C 17.301422 27.889439 17.941545 30.066586 19.494999 31.509998L 22.780001 34.795002M 10 10M 25 29.349998L 28.27 32.619999C 30.550507 34.738968 34.09832 34.675484 36.301556 32.47628C 38.504791 30.277077 38.574783 26.729389 36.459999 24.445L 33.189999 21.16M 10.75 28C 9.7 37.449997 18.549999 45.25 28 45.25C 37.599998 45.25 46.900002 37.449997 45.25 28C 43.599998 18.700001 37.599998 10.3 28 10.75C 18.549999 11.2 8.95 18.700001 10.75 28M 10 10M 32.200001 27.849998C 30.400002 26.650002 29.349998 24.700001 27.700001 23.349998C 26.349998 21.700001 23.650002 20.35 22 21.700001C 20.35 22.900002 17.799999 23.650002 17.799999 25.900002C 17.799999 28 17.5 30.700001 19.450001 31.450001C 20.200001 32.799999 21.4 34.150002 22.75 34.75M 10 10M 25 29.349998C 25.900002 30.700001 27.25 31.599998 28.299999 32.650002C 30.700001 34.449997 34.75 35.199997 36.25 32.5C 37.900002 29.799999 38.800003 26.5 36.400002 24.400002C 35.5 23.349998 34.150002 22.450001 33.25 21.1"></path></g></g></g><g id="g-root-ic_clou_1luwuh11giiscu-stroke" data-item-order="0" transform="translate(302, 218)"><g id="ic_clou_1luwuh11giiscu-stroke" fill="none" stroke-linecap="round" stroke-linejoin="round" stroke-miterlimit="4" stroke="#484848" stroke-width="2" stroke-opacity="1"><g><path d="M 39.650501 45.049L 39.650501 35.248001M 37.689999 35.248001L 41.611 35.248001M 37.689999 45.049L 41.611 45.049M 26.678501 45.049L 26.678501 41.128002M 26.678501 41.128002L 29.619999 41.128002C 31.243559 41.127777 32.559593 39.811558 32.559593 38.188C 32.559593 36.564442 31.243559 35.248222 29.619999 35.248001L 26.678501 35.248001ZM 13.7065 45.049L 14.8135 37.670502C 15.035271 36.288483 16.227798 35.272057 17.627501 35.272057C 19.027203 35.272057 20.21973 36.288483 20.4415 37.670502L 21.549999 45.049M 14.221 41.6185L 21.034 41.6185M 45.25 24.451C 45.251884 22.415213 44.424461 20.466484 42.95845 19.053957C 41.492432 17.641432 39.514309 16.886984 37.48 16.9645C 35.437531 12.627551 30.71344 10.228528 26.006676 11.13803C 21.299913 12.047533 17.809681 16.033834 17.530001 20.8195C 15.871469 20.472103 14.144699 20.890684 12.829344 21.958975C 11.513988 23.027266 10.750148 24.631477 10.75 26.326C 10.75 32.041 16.75 31.951 16.75 31.951L 38.5 31.951C 38.5 31.951 45.25 31.072001 45.25 24.451ZM 39.699997 45.099998C 40.599998 41.949997 40 38.5 39.699997 35.199997M 37.75 35.199997C 38.949997 35.5 40.300003 35.5 41.650002 35.199997M 37.75 45.099998C 38.949997 45.25 40.300003 44.650002 41.650002 45.099998M 26.650002 45.099998C 27.099998 43.75 26.5 42.400002 26.650002 41.199997M 26.650002 41.199997C 27.700001 40.900002 28.599998 40.900002 29.650002 41.199997C 31.150002 41.650002 32.5 39.849998 32.5 38.199997C 32.650002 36.550003 31.299999 35.199997 29.650002 35.199997C 28.599998 35.199997 27.700001 35.5 26.650002 35.199997C 27.099998 37.150002 26.349998 39.25 26.650002 41.199997M 13.75 45.099998C 14.65 42.699997 13.75 39.849998 14.8 37.599998C 15.4 36.400002 16.299999 35.800003 17.65 35.199997C 19 34.75 19.75 36.400002 20.5 37.599998C 21.700001 39.849998 20.5 42.849998 21.549999 45.099998M 14.2 41.650002C 16.450001 41.199997 18.700001 41.5 21.1 41.650002M 45.25 24.400002C 46 22.599998 44.349998 20.5 43 19C 41.5 17.65 39.550003 16.6 37.449997 16.9C 36.099998 12.4 30.700001 10 26.049999 11.2C 21.4 12.25 18.4 16.15 17.5 20.799999C 15.85 20.35 13.75 20.5 12.85 22C 11.95 23.349998 11.05 24.700001 10.75 26.349998C 9.85 31.900002 16.75 31.900002 16.75 31.900002C 23.950001 31.900002 31.299999 32.650002 38.5 31.900002C 38.5 31.900002 46.449997 31 45.25 24.400002"></path></g></g></g><g id="g-root-ic_conv_deudz91giem83-stroke" data-item-order="0" transform="translate(422, 218)"><g id="ic_conv_deudz91giem83-stroke" fill="none" stroke-linecap="round" stroke-linejoin="round" stroke-miterlimit="4" stroke="#484848" stroke-width="2" stroke-opacity="1"><g><path d="M 14.295985 25.75045L 14.295985 15.9685C 14.295985 14.32909 15.625 13.00009 17.26441 13.00009L 27.13435 13.00009L 38.701599 13C 40.34095 13 41.669952 14.329 41.669952 15.96841L 41.669952 17.81032M 41.669952 24.576565L 41.669952 34.349949C 41.669952 35.989449 40.34095 37.318451 38.701599 37.318451L 24.4639 37.318451L 16.623775 42.734352C 15.639265 43.414452 14.295985 42.709747 14.295985 41.513199L 14.295985 32.064251M 11.259766 23.51026L 14.359195 26.60965L 17.45863 23.51026M 10 10M 44.741501 26.609501L 41.642052 23.510065L 38.542603 26.609501M 14.35 25.75C 14.2 22.450001 13.6 19.15 14.35 16C 14.65 14.35 15.7 12.85 17.200001 13C 20.5 13.3 23.799999 13 27.099998 13C 31 12.85 34.900002 12.85 38.650002 13C 40.300003 13 41.800003 14.35 41.650002 16C 41.650002 16.6 41.650002 17.200001 41.650002 17.799999M 41.650002 24.549999C 42.550003 27.700001 41.650002 31.150002 41.650002 34.300003C 41.650002 35.949997 40.300003 37.300003 38.650002 37.300003C 34 37.150002 29.200001 37.449997 24.400002 37.300003C 22.450001 39.849998 19.450001 41.349998 16.6 42.699997C 15.55 43.300003 14.65 42.699997 14.35 41.5C 13.45 38.5 13.75 35.199997 14.35 32.049999M 11.2 23.5C 12.1 24.700001 13.6 25.299999 14.35 26.650002C 15.55 25.900002 16.15 24.25 17.5 23.5M 10 10M 44.800003 26.650002C 43.75 25.599998 42.849998 24.25 41.650002 23.5C 40.449997 24.400002 39.699997 25.75 38.5 26.650002"></path></g></g></g><g id="g-root-ic_redi_1q88d391giww03-stroke" data-item-order="0" transform="translate(542, 218)"><g id="ic_redi_1q88d391giww03-stroke" fill="none" stroke-linecap="round" stroke-linejoin="round" stroke-miterlimit="4" stroke="#484848" stroke-width="2" stroke-opacity="1"><g><path d="M 22.824986 29.125C 29.286699 29.125 34.525002 26.841551 34.525002 24.024925C 34.525002 21.208269 29.286699 18.924925 22.824986 18.924925C 16.363255 18.924925 11.125 21.208269 11.125 24.024925C 11.125 26.841551 16.363255 29.125 22.824986 29.125ZM 11.125 24.47485L 11.125 39.774849C 11.125 42.624851 16.374985 44.874851 22.824986 44.874851C 29.275002 44.874851 34.525002 42.624851 34.525002 39.774849L 34.525002 24.47485M 38.875 24.625L 44.875 24.625L 44.875 18.625C 43.675003 18.625 42.625 17.575001 42.625 16.375C 42.625 15.175 43.675003 14.125 44.875 14.125L 44.875 11.125L 22.375 11.125L 22.375 14.125C 23.125 14.125 23.725016 14.425 24.025015 14.875M 29.125 14.875L 29.125 15.625M 33.625 14.875L 33.625 17.125M 38.125 14.875L 38.125 18.625M 10 10M 20.130039 40.664349L 20.130039 37.49395M 20.130039 37.49395L 20.130039 33.055149L 22.98349 33.055149C 24.209215 33.055149 25.202799 34.048748 25.202799 35.274551L 25.202799 35.274551C 25.202799 36.500198 24.209215 37.49395 22.98349 37.49395L 20.130039 37.49395ZM 10 10M 23.300606 37.493801L 25.519899 40.664349M 22.75 29.200001C 29.049999 27.099998 34.599998 26.799999 34.599998 23.950001C 34.449997 21.25 29.200001 18.25 22.75 18.85C 16.450001 19.6 10.3 21.4 11.2 23.950001C 11.95 26.799999 16.450001 28.599998 22.75 29.200001M 11.2 24.400002C 12.25 29.5 11.5 34.75 11.2 39.699997C 10.9 42.550003 16.6 43 22.75 44.800003C 29.049999 46.75 34.75 42.550003 34.599998 39.699997C 34.150002 34.75 35.800003 29.349998 34.599998 24.400002M 38.949997 24.700001C 40.75 25.299999 42.849998 25 44.949997 24.700001C 44.650002 22.599998 44.650002 20.65 44.949997 18.700001C 43.75 18.700001 42.400002 17.5 42.699997 16.450001C 42.849998 15.25 43.75 14.2 44.949997 14.2C 44.650002 13.15 45.099998 12.1 44.949997 11.2C 37.449997 10.6 29.799999 10.75 22.450001 11.2C 22.150002 12.1 22.299999 13.15 22.450001 14.2C 23.049999 14.35 23.950001 14.35 24.099998 14.95M 29.200001 14.95C 29.049999 15.1 29.200001 15.4 29.200001 15.7M 33.700001 14.95C 33.549999 15.55 33.549999 16.450001 33.700001 17.200001M 38.199997 14.95C 38.199997 16.15 38.199997 17.35 38.199997 18.700001M 10 10M 20.200001 40.599998C 20.35 39.699997 19.75 38.5 20.200001 37.449997M 20.200001 37.449997C 20.200001 35.949997 20.049999 34.599998 20.200001 33.099998C 20.950001 32.650002 22 32.950001 23.049999 33.099998C 24.25 33.099998 25.150002 34 25.150002 35.199997C 25.299999 36.550003 24.25 37.449997 23.049999 37.449997C 22 37.449997 20.950001 37.900002 20.200001 37.449997M 10 10M 23.349998 37.449997C 24.400002 38.349998 24.700001 39.699997 25.450001 40.599998"></path></g></g></g><g id="g-root-ic_sync_zqb51h1giptl3-stroke" data-item-order="0" transform="translate(662, 218)"><g id="ic_sync_zqb51h1giptl3-stroke" fill="none" stroke-linecap="round" stroke-linejoin="round" stroke-miterlimit="4" stroke="#484848" stroke-width="2" stroke-opacity="1"><g><path d="M 33.281502 38.4235L 27.841 38.4235L 27.841 44.092003M 44.403999 39.531998C 43.299732 43.08289 39.917271 45.423878 36.204998 45.206501C 32.488159 44.886826 29.454817 42.099998 28.821999 38.4235M 39.809498 33.890499L 45.25 33.890499L 45.25 28.223499M 28.687 32.778999C 29.792938 29.2299 33.174976 26.89106 36.886002 27.109001C 40.601242 27.429878 43.633495 30.214479 44.269001 33.889M 10.75 16.879L 40.504002 16.879M 10.75 29.876501L 25.111 29.876501M 10.75 23.387501L 40.496498 23.387501M 22.903 16.879L 22.903 36.602501M 31.616501 16.879L 31.616501 25.042M 23.976999 36.598L 13.888 36.598C 12.159073 36.598 10.7575 35.196426 10.7575 33.467499L 10.7575 13.9C 10.759983 12.17283 12.160829 10.773998 13.888 10.774L 37.365997 10.774C 39.09317 10.773998 40.494015 12.17283 40.496498 13.9L 40.496498 25.150002M 33.25 38.349998C 31.450001 38.650002 29.650002 38.349998 27.849998 38.349998C 28.299999 40.300003 27.25 42.25 27.849998 44.050003M 44.349998 39.550003C 43.300003 43.150002 39.849998 44.800003 36.25 45.25C 32.799999 43.75 28.599998 42.099998 28.75 38.349998M 39.849998 33.849998C 41.650002 33.849998 43.449997 33.700001 45.25 33.849998C 44.650002 32.049999 44.650002 29.950001 45.25 28.150002M 28.75 32.799999C 30.700001 29.650002 33.099998 26.950001 36.849998 27.099998C 40.599998 26.5 43.599998 30.25 44.199997 33.849998M 10.75 16.9C 20.35 19.299999 30.849998 19.450001 40.449997 16.9M 10.75 29.950001C 15.55 30.549999 20.35 29.950001 25.150002 29.950001M 10.75 23.349998C 20.35 25.599998 30.700001 21.549999 40.449997 23.349998M 22.900002 16.9C 22.900002 23.5 22.299999 30.099998 22.900002 36.550003M 31.599998 16.9C 32.049999 19.6 31.150002 22.299999 31.599998 25M 23.950001 36.550003C 20.65 35.800003 17.049999 35.5 13.9 36.550003C 12.25 37.150002 11.05 35.199997 10.75 33.400002C 9.4 27.099998 12.25 20.200001 10.75 13.9C 10.3 12.25 12.25 10.3 13.9 10.75C 21.25 13.3 29.5 10.15 37.300003 10.75C 39.099998 10.9 40.449997 12.25 40.449997 13.9C 40.599998 17.65 41.050003 21.4 40.449997 25.150002"></path></g></g></g><g id="g-root-ic_rota_qrjuit1gipv62-stroke" data-item-order="0" transform="translate(62, 218)"><g id="ic_rota_qrjuit1gipv62-stroke" fill="none" stroke-linecap="round" stroke-linejoin="round" stroke-miterlimit="4" stroke="#484848" stroke-width="2" stroke-opacity="1"><g><path d="M 30.775002 16.662115C 33.0406 19.078856 36.21265 20.438259 39.8377 20.438259C 41.650299 20.438259 43.311848 20.136175 44.822201 19.380939M 42.025002 14.42497C 43.824997 15.77497 44.875 17.874969 44.875 20.274969C 44.875 24.47497 41.574997 27.775002 37.375 27.775002C 33.174999 27.775002 29.875 24.47497 29.875 20.274969C 29.875 16.07497 33.174999 12.77497 37.375 12.77497M 10 10M 34.675003 11.124817L 37.375 12.77482L 35.574997 15.77482M 25.375 28.375C 25.375 30.924999 23.424999 32.875 20.875 32.875C 18.325001 32.875 16.375 30.924999 16.375 28.375L 16.375 26.125C 16.375 23.575001 18.325001 21.625 20.875 21.625C 23.424999 21.625 25.375 23.575001 25.375 26.125L 25.375 28.375ZM 19.375 32.634701L 19.375 35.125C 19.375 35.125 16.375 35.125 14.875 36.625C 14.875 36.625 16.375 41.125 20.125 41.125C 22.224998 41.125 22.825001 39.474998 24.025002 38.125L 24.025002 31.6387M 29.875 35.875C 31.375 37.525002 32.125 39.625 32.125 41.875L 32.125 44.875M 14.875 36.625C 14.875 36.625 11.125 38.875 11.125 44.875M 24.174925 38.125C 27.174999 35.125 29.875 35.875 29.875 35.875L 29.875 29.875M 20.875 21.625L 25.375 21.625M 30.849998 16.6C 33.099998 19 36.25 21.25 39.849998 20.5C 41.650002 20.049999 43.449997 20.35 44.800003 19.450001M 42.099998 14.35C 44.050003 15.4 44.949997 17.950001 44.949997 20.200001C 44.650002 24.400002 41.5 28.599998 37.449997 27.849998C 33.25 26.950001 30.549999 24.400002 29.950001 20.200001C 29.200001 16.15 33.25 13.45 37.449997 12.7M 10 10M 34.75 11.05C 35.5 11.8 36.550003 12.1 37.449997 12.7C 36.699997 13.75 35.949997 14.65 35.650002 15.7M 25.450001 28.450001C 26.200001 30.849998 23.349998 32.200001 20.950001 32.950001C 18.4 33.549999 17.35 30.700001 16.450001 28.450001C 16.15 27.700001 16.15 26.799999 16.450001 26.200001C 17.049999 23.650002 18.4 21.700001 20.950001 21.700001C 23.349998 21.549999 25.450001 23.650002 25.450001 26.200001C 25.299999 26.799999 25.450001 27.700001 25.450001 28.450001M 19.450001 32.650002C 19.6 33.400002 19.6 34.300003 19.450001 35.199997C 19.450001 35.199997 16.450001 35.349998 14.95 36.699997C 14.95 36.699997 16.450001 41.199997 20.200001 41.199997C 22.150002 41.050003 23.049999 39.699997 24.099998 38.199997C 23.5 36.099998 23.799999 33.849998 24.099998 31.599998M 29.950001 35.949997C 30.849998 37.900002 32.049999 39.699997 32.200001 41.949997C 32.200001 42.849998 32.349998 43.900002 32.200001 44.949997M 14.95 36.699997C 14.95 36.699997 13.45 39.25 11.2 44.949997M 24.099998 38.199997C 27.400002 35.349998 29.950001 35.949997 29.950001 35.949997C 30.25 33.849998 29.5 31.900002 29.950001 29.950001M 20.950001 21.700001C 22.450001 21.549999 23.950001 21.4 25.450001 21.700001"></path></g></g></g><g id="g-root-tx_thebacke_1ltnwat1giwvlx-stroke" data-item-order="0" transform="translate(626, 152)"></g><g id="g-root-tx_thebacke_4j7dqd1giwwln-stroke" data-item-order="0" transform="translate(512, 140)"></g><g id="g-root-tx_thefront_v5hxdx1giwwll-stroke" data-item-order="0" transform="translate(386, 152)"></g><g id="g-root-tx_thebacke_4hyfk51giwufj-stroke" data-item-order="0" transform="translate(272, 152)"></g><g id="g-root-tx_thefront_13zvzgl1giwtmt-stroke" data-item-order="0" transform="translate(152, 152)"></g><g id="g-root-tx_theuseri_9i6d1giww7f-stroke" data-item-order="0" transform="translate(32, 164)"></g><g id="g-root-tx_backende_qqawcl1giwu82-stroke" data-item-order="0" transform="translate(524, 86)"></g><g id="g-root-tx_frontend_1lrsh1h1giwwlk-stroke" data-item-order="0" transform="translate(398, 86)"></g><g id="g-root-tx_backendu_hssgud1giww0e-stroke" data-item-order="0" transform="translate(272, 110)"></g><g id="g-root-tx_useropen_dbq0jp1giwumi-stroke" data-item-order="0" transform="translate(38, 122)"></g><g id="g-root-tx_backendr_40cp11giwu84-stroke" data-item-order="0" transform="translate(638, 86)"></g><g id="g-root-tx_frontend_1haq0qt1giwv7o-stroke" data-item-order="0" transform="translate(152, 98)"></g><g id="g-root-tx_thefront_1qclrut1giww09-stroke" data-item-order="0" transform="translate(692, 398)"></g><g id="g-root-ic_next_qqawcl1giofm3-stroke" data-item-order="0" transform="translate(242, 278)"><g id="ic_next_qqawcl1giofm3-stroke" fill="none" stroke-linecap="round" stroke-linejoin="round" stroke-miterlimit="4" stroke="#484848" stroke-width="2" stroke-opacity="1"><g><path d="M 21.623501 35.125L 14.1235 35.125C 13.295073 35.125 12.6235 34.453426 12.6235 33.625L 12.6235 19.246C 12.623585 18.848207 12.781676 18.46674 13.063 18.185499L 18.184 13.0645C 18.465239 12.783176 18.846708 12.625085 19.244499 12.625L 27.002501 12.625C 27.400291 12.625085 27.781761 12.783176 28.063 13.0645L 33.184002 18.185499C 33.465324 18.46674 33.623413 18.848207 33.623501 19.246L 33.623501 21.625M 23.123499 12.625L 23.123499 18.625M 36.626499 26.125L 43.376499 31.375L 36.626499 36.625M 43.376499 31.375L 38.126499 31.375C 33.155937 31.375 29.126501 35.404438 29.126501 40.375L 29.126501 43.375M 33.488503 18.625L 12.7585 18.625M 21.549999 35.199997C 19.15 35.650002 16.6 35.050003 14.05 35.199997C 13.3 35.199997 12.55 34.449997 12.55 33.700001C 12.85 28.900002 14.2 23.799999 12.55 19.299999C 12.55 18.85 12.85 18.549999 13 18.25C 14.5 16.299999 17.049999 15.25 18.25 13C 18.4 12.7 18.85 12.55 19.299999 12.7C 21.85 13 24.400002 12.1 26.950001 12.7C 27.400002 12.7 27.849998 12.7 28 13C 29.5 14.95 31 17.200001 33.25 18.25C 33.549999 18.4 33.700001 18.85 33.549999 19.299999C 33.400002 20.049999 33.549999 20.799999 33.549999 21.700001M 23.049999 12.7C 22.900002 14.65 22.900002 16.6 23.049999 18.700001M 36.699997 26.200001C 38.949997 27.849998 40.900002 29.950001 43.449997 31.450001C 41.650002 33.549999 38.349998 34.300003 36.699997 36.699997M 43.449997 31.450001C 41.650002 31.900002 39.849998 31.599998 38.199997 31.450001C 33.25 30.700001 28.900002 35.349998 29.200001 40.449997C 29.200001 41.349998 28.900002 42.400002 29.200001 43.449997M 33.549999 18.700001C 26.650002 19.75 19.6 17.799999 12.7 18.700001"></path></g></g></g><g id="g-root-ic_mess_7r77p1gik8p1-stroke" data-item-order="0" transform="translate(362, 278)"><g id="ic_mess_7r77p1gik8p1-stroke" fill="none" stroke-linecap="round" stroke-linejoin="round" stroke-miterlimit="4" stroke="#484848" stroke-width="2" stroke-opacity="1"><g><path d="M 45.25 34.75C 45.25 37.235283 43.235283 39.25 40.75 39.25L 20.5 39.25C 18.014719 39.25 16 37.235283 16 34.75L 16 25L 11.14 19.255001C 10.743288 18.815447 10.642269 18.183651 10.882144 17.642313C 11.122019 17.100973 11.657897 16.751396 12.25 16.75L 40.75 16.75C 43.235283 16.75 45.25 18.764719 45.25 21.25ZM 21.25 22.75L 40 22.75M 21.25 28L 40 28M 21.25 33.25L 34.75 33.25M 45.25 34.75C 44.5 37.150002 43.150002 38.949997 40.75 39.25C 34 40.150002 26.799999 36.699997 20.5 39.25C 18.25 40.150002 16.6 37.150002 16 34.75C 15.1 31.599998 15.25 28.150002 16 25C 14.2 23.200001 12.85 21.1 11.2 19.299999C 10.9 18.700001 10.75 18.25 10.9 17.65C 10.9 17.049999 11.65 16.9 12.25 16.75C 21.700001 15.25 31.450001 15.1 40.75 16.75C 43.150002 17.200001 45.849998 18.85 45.25 21.25C 44.349998 25.599998 45.099998 30.25 45.25 34.75M 21.25 22.75C 27.549999 22.599998 34.150002 20.5 40 22.75M 21.25 28C 27.400002 28.450001 33.849998 26.650002 40 28M 21.25 33.25C 25.450001 34.900002 30.400002 34.300003 34.75 33.25"></path></g></g></g><g id="g-root-ic_1_1lynozp1gifytr-stroke" data-item-order="0" transform="translate(482, 278)"><g id="ic_1_1lynozp1gifytr-stroke" fill="none" stroke-linecap="round" stroke-linejoin="round" stroke-miterlimit="4" stroke="#484848" stroke-width="2" stroke-opacity="1"><g><path d="M 39.25 28.719999L 39.25 19.681C 39.25 14.731148 35.23735 10.7185 30.287498 10.7185L 12.25 10.7185C 11.421573 10.7185 10.75 11.390073 10.75 12.2185L 10.75 28.7185M 31.75 10.8385L 31.75 16.7185C 31.75 17.546926 32.421574 18.2185 33.25 18.2185L 39.130001 18.2185M 12.25 33.218498L 18.25 33.218498M 15.25 33.218498L 15.25 45.218498M 12.25 45.218498L 18.25 45.218498M 21.25 45.218498L 21.25 33.218498L 27.25 45.218498L 27.25 33.218498M 30.25 33.218498C 33.563709 33.218498 36.25 35.904793 36.25 39.218498C 36.25 42.532207 33.563709 45.218498 30.25 45.218498ZM 39.25 33.218498C 42.563709 33.218498 45.25 35.904793 45.25 39.218498C 45.25 42.532207 42.563709 45.218498 39.25 45.218498ZM 39.25 28.75C 39.25 25.75 38.949997 22.599998 39.25 19.75C 39.699997 14.8 35.199997 10.9 30.25 10.75C 24.25 10.6 18.25 11.5 12.25 10.75C 11.5 10.6 10.9 11.35 10.75 12.25C 9.55 17.65 11.5 23.200001 10.75 28.75M 31.75 10.9C 32.349998 12.7 32.049999 14.8 31.75 16.75C 31.599998 17.5 32.349998 18.4 33.25 18.25C 35.199997 17.950001 37.150002 18.4 39.099998 18.25M 12.25 33.25C 14.2 33.25 16.299999 33.400002 18.25 33.25M 15.25 33.25C 16.75 37 13.75 41.5 15.25 45.25M 12.25 45.25C 14.2 45.25 16.299999 44.650002 18.25 45.25M 21.25 45.25C 21.549999 41.199997 21.25 37.150002 21.25 33.25C 23.200001 37.300003 24.25 41.800003 27.25 45.25C 26.349998 41.349998 26.650002 37.150002 27.25 33.25M 30.25 33.25C 33.400002 32.200001 37 35.949997 36.25 39.25C 35.5 42.400002 33.549999 45.849998 30.25 45.25C 29.799999 41.199997 29.950001 37.150002 30.25 33.25M 39.25 33.25C 42.550003 33.25 45.25 35.949997 45.25 39.25C 45.25 42.550003 42.550003 45.099998 39.25 45.25C 38.199997 41.349998 37.900002 37 39.25 33.25"></path></g></g></g><g id="g-root-ic_api_1qd85s51giy8sr-stroke" data-item-order="0" transform="translate(602, 278)"><g id="ic_api_1qd85s51giy8sr-stroke" fill="none" stroke-linecap="round" stroke-linejoin="round" stroke-miterlimit="4" stroke="#484848" stroke-width="2" stroke-opacity="1"><g><path d="M 43.6315 45.25L 43.6315 36.784M 42.013 36.784L 45.25 36.784M 42.013 45.25L 45.25 45.25M 33.112 45.25L 33.112 41.638M 33.112 41.638L 35.540501 41.638C 36.880898 41.638 37.967499 40.551395 37.967499 39.211002C 37.967499 37.870605 36.880898 36.784 35.540501 36.784L 33.112 36.784ZM 21.784 45.25L 22.6975 38.783501C 22.868608 37.631351 23.857714 36.77829 25.022501 36.77829C 26.187286 36.77829 27.176392 37.631351 27.3475 38.783501L 28.261 45.25M 22.210001 42.042999L 27.8335 42.042999M 38.875 34.6315C 39.5644 33.242855 40.068699 31.769794 40.375 30.25L 43.75 30.25C 44.578426 30.25 45.25 29.578428 45.25 28.75L 45.25 27.25C 45.25 26.421572 44.578426 25.75 43.75 25.75L 40.379501 25.75C 40.073677 24.229595 39.569359 22.755978 38.879501 21.367001L 41.258499 18.985001C 41.84407 18.39925 41.84407 17.449749 41.258499 16.864L 39.136002 14.7415C 38.550251 14.155927 37.60075 14.155927 37.014999 14.7415L 34.630001 17.125C 33.24218 16.434891 31.769518 15.930555 30.25 15.625L 30.25 12.25C 30.25 11.421573 29.578428 10.75 28.75 10.75L 27.25 10.75C 26.421572 10.75 25.75 11.421573 25.75 12.25L 25.75 15.622C 24.230003 15.927564 22.756849 16.431896 21.3685 17.122L 18.9835 14.7415C 18.397751 14.155927 17.44825 14.155927 16.862499 14.7415L 14.74 16.864C 14.154427 17.449749 14.154427 18.39925 14.74 18.985001L 17.125 21.3685C 16.435602 22.757143 15.931301 24.230206 15.625 25.75L 12.25 25.75C 11.421573 25.75 10.75 26.421572 10.75 27.25L 10.75 28.75C 10.75 29.578428 11.421573 30.25 12.25 30.25L 15.619 30.25C 15.925302 31.769794 16.429602 33.242855 17.118999 34.6315L 14.734 37.016499C 14.148427 37.602249 14.148427 38.55175 14.734 39.137497L 16.856501 41.258499C 17.442249 41.84407 18.39175 41.84407 18.977501 41.258499M 24.172001 33.560501C 21.832066 31.949659 20.75111 29.046169 21.467949 26.297308C 22.184788 23.548447 24.545984 21.542587 27.374577 21.279577C 30.203167 21.016567 32.893707 22.5527 34.105072 25.122272C 35.316429 27.691847 34.78933 30.744858 32.786499 32.759499M 43.599998 45.25C 42.550003 42.699997 44.199997 39.550003 43.599998 36.849998M 41.949997 36.849998C 43 37 44.199997 36.699997 45.25 36.849998M 41.949997 45.25C 43 45.400002 44.199997 45.099998 45.25 45.25M 33.099998 45.25C 33.400002 44.050003 32.950001 42.849998 33.099998 41.650002M 33.099998 41.650002C 33.849998 41.650002 34.75 41.800003 35.5 41.650002C 36.849998 41.349998 37.75 40.599998 37.900002 39.25C 38.199997 37.900002 36.849998 36.550003 35.5 36.849998C 34.75 36.849998 33.849998 37.150002 33.099998 36.849998C 32.650002 38.349998 33.549999 40.150002 33.099998 41.650002M 21.85 45.25C 21.700001 43 22 40.900002 22.75 38.800003C 23.049999 37.75 23.950001 36.400002 25 36.849998C 26.049999 37.150002 27.099998 37.599998 27.400002 38.800003C 27.700001 40.900002 27.400002 43.150002 28.299999 45.25M 22.150002 42.099998C 23.950001 41.349998 25.900002 41.949997 27.849998 42.099998M 38.949997 34.599998C 39.400002 33.25 40.150002 31.75 40.300003 30.25C 41.5 29.950001 42.699997 30.549999 43.75 30.25C 44.5 30.099998 45.400002 29.5 45.25 28.75C 45.099998 28.299999 45.25 27.700001 45.25 27.25C 45.099998 26.5 44.5 25.900002 43.75 25.75C 42.699997 25.599998 41.5 25.900002 40.449997 25.75C 40.150002 24.25 39.550003 22.75 38.949997 21.4C 39.699997 20.65 40.449997 19.75 41.199997 19C 41.800003 18.4 41.650002 17.65 41.199997 16.9C 40.900002 16 39.849998 15.4 39.099998 14.8C 38.5 14.2 37.599998 14.05 37 14.8C 36.25 15.55 35.5 16.299999 34.599998 17.200001C 33.400002 16.15 31.599998 16.450001 30.25 15.55C 30.549999 14.5 30.400002 13.45 30.25 12.25C 30.099998 11.5 29.5 11.05 28.75 10.75C 28.299999 10.6 27.700001 10.9 27.25 10.75C 26.5 10.45 25.450001 11.5 25.75 12.25C 26.200001 13.3 26.200001 14.5 25.75 15.55C 24.25 15.55 22.599998 16.299999 21.4 17.049999C 20.35 16.6 19.9 15.55 19 14.8C 18.4 14.2 17.5 14.35 16.9 14.8C 16 15.25 15.4 16.15 14.8 16.9C 14.2 17.5 14.05 18.700001 14.8 19C 15.7 19.450001 16.450001 20.5 17.200001 21.4C 16 22.450001 16 24.25 15.55 25.75C 14.5 25.900002 13.3 26.049999 12.25 25.75C 11.5 25.599998 11.05 26.5 10.75 27.25C 10.6 27.700001 10.6 28.299999 10.75 28.75C 10.9 29.5 11.35 30.25 12.25 30.25C 13.3 30.25 14.5 30.549999 15.55 30.25C 15.55 31.75 16.6 33.25 17.049999 34.599998C 16.299999 35.5 15.55 36.25 14.8 37C 14.2 37.599998 14.2 38.5 14.8 39.099998C 15.4 39.849998 16 40.900002 16.9 41.199997C 17.65 41.650002 18.549999 41.949997 19 41.199997M 24.099998 33.549999C 22 31.75 20.65 29.049999 21.4 26.349998C 22.299999 23.650002 24.549999 21.1 27.400002 21.25C 30.25 21.4 33.099998 22.450001 34.150002 25.150002C 35.050003 27.849998 34.150002 30.25 32.799999 32.799999"></path></g></g></g><g id="g-root-ic_awar_145i62t1giu1or-stroke" data-item-order="0" transform="translate(722, 278)"><g id="ic_awar_145i62t1giu1or-stroke" fill="none" stroke-linecap="round" stroke-linejoin="round" stroke-miterlimit="4" stroke="#484848" stroke-width="2" stroke-opacity="1"><g><path d="M 10.75 16.75L 25.75 16.75M 36.25 16.75L 40.75 16.75M 14.875 13.375C 14.667893 13.375 14.5 13.542893 14.5 13.75C 14.5 13.957107 14.667893 14.125 14.875 14.125C 15.082107 14.125 15.25 13.957107 15.25 13.75C 15.25 13.542893 15.082107 13.375 14.875 13.375L 14.875 13.375M 18.625 13.375C 18.417892 13.375 18.25 13.542893 18.25 13.75C 18.25 13.957107 18.417892 14.125 18.625 14.125C 18.832108 14.125 19 13.957107 19 13.75C 19 13.542893 18.832108 13.375 18.625 13.375L 18.625 13.375M 22.375 13.375C 22.167892 13.375 22 13.542893 22 13.75C 22 13.957107 22.167892 14.125 22.375 14.125C 22.582108 14.125 22.75 13.957107 22.75 13.75C 22.75 13.542893 22.582108 13.375 22.375 13.375L 22.375 13.375M 22 33.25L 13.75 33.25C 12.093145 33.25 10.75 31.906855 10.75 30.25L 10.75 13.75C 10.75 12.093145 12.093145 10.75 13.75 10.75L 37.75 10.75C 39.406857 10.75 40.75 12.093145 40.75 13.75L 40.75 31.75M 30.25 36.25L 31 36.25C 31.414213 36.25 31.75 36.585785 31.75 37L 31.75 42.25M 30.25 42.25L 33.25 42.25M 27.25 31.75L 36.25 31.75C 37.078426 31.75 37.75 32.421574 37.75 33.25L 37.75 45.25L 37.75 45.25L 25.75 45.25L 25.75 45.25L 25.75 33.25C 25.75 32.421574 26.421572 31.75 27.25 31.75ZM 37.75 39.25L 43.75 39.25C 44.578426 39.25 45.25 39.921574 45.25 40.75L 45.25 45.25L 45.25 45.25L 37.75 45.25L 37.75 45.25L 37.75 39.25L 37.75 39.25ZM 19.75 39.25L 25.75 39.25L 25.75 39.25L 25.75 45.25L 25.75 45.25L 18.25 45.25L 18.25 45.25L 18.25 40.75C 18.25 39.921574 18.921574 39.25 19.75 39.25ZM 36.208 22.57C 36.446659 22.365908 36.532906 22.034742 36.42411 21.740166C 36.315315 21.445587 36.034523 21.249975 35.720497 21.25L 32.968002 21.25L 32.081501 18.7465C 31.975054 18.447725 31.692171 18.248209 31.375 18.248209C 31.057829 18.248209 30.774946 18.447725 30.668501 18.7465L 29.7805 21.25L 27.029499 21.25C 26.715475 21.249975 26.434683 21.445587 26.32589 21.740166C 26.217098 22.034742 26.303341 22.365908 26.542 22.57L 28.613501 24.343L 27.400002 27.435999C 27.282457 27.735544 27.369091 28.076691 27.615313 28.283855C 27.861534 28.491024 28.212469 28.518038 28.487499 28.351L 31.373499 26.601999L 34.259499 28.351C 34.534477 28.516857 34.884533 28.489248 35.130112 28.282339C 35.37569 28.075428 35.462296 27.735132 35.345497 27.435999L 34.135002 24.343ZM 10.75 16.75C 15.7 16.6 20.799999 16.15 25.75 16.75M 36.25 16.75C 37.75 16.450001 39.25 16.9 40.75 16.75M 14.95 13.45C 14.65 13.45 14.5 13.6 14.5 13.75C 14.5 13.9 14.65 14.2 14.95 14.2C 15.1 14.2 15.25 13.9 15.25 13.75C 15.25 13.6 15.1 13.45 14.95 13.45M 18.700001 13.45C 18.4 13.3 18.25 13.6 18.25 13.75C 18.25 13.9 18.4 14.05 18.700001 14.2C 18.85 14.2 19 13.9 19 13.75C 19 13.6 18.85 13.3 18.700001 13.45M 22.450001 13.45C 22.150002 13.45 22 13.6 22 13.75C 22 13.9 22.150002 14.2 22.450001 14.2C 22.599998 14.05 22.75 13.9 22.75 13.75C 22.75 13.6 22.599998 13.45 22.450001 13.45M 22 33.25C 19.450001 34.300003 16.450001 33.25 13.75 33.25C 12.1 33.25 10.3 31.900002 10.75 30.25C 12.1 25 11.05 19.299999 10.75 13.75C 10.6 12.1 12.1 10.45 13.75 10.75C 21.549999 12.4 29.950001 12.55 37.75 10.75C 39.400002 10.3 40.75 12.1 40.75 13.75C 40.900002 19.75 42.099998 25.900002 40.75 31.75M 30.25 36.25C 30.549999 36.25 30.700001 36.25 31 36.25C 31.450001 36.400002 31.900002 36.550003 31.75 37C 31.150002 38.650002 31.450001 40.449997 31.75 42.25M 30.25 42.25C 31.150002 42.099998 32.349998 42.099998 33.25 42.25M 27.25 31.75C 30.25 31.299999 33.400002 32.5 36.25 31.75C 37 31.599998 37.75 32.349998 37.75 33.25C 37.599998 37.300003 36.849998 41.349998 37.75 45.25C 33.849998 44.650002 29.650002 46.300003 25.75 45.25C 25.900002 41.199997 24.849998 37.150002 25.75 33.25C 25.900002 32.5 26.349998 31.75 27.25 31.75M 37.75 39.25C 39.699997 38.650002 41.800003 38.650002 43.75 39.25C 44.5 39.550003 45.400002 40 45.25 40.75C 44.800003 42.25 45.25 43.75 45.25 45.25C 42.699997 45.550003 40.300003 44.949997 37.75 45.25C 38.050003 43.300003 38.050003 41.199997 37.75 39.25M 19.75 39.25C 21.700001 38.800003 23.799999 39.25 25.75 39.25C 25.599998 41.199997 25.599998 43.300003 25.75 45.25C 23.349998 46.150002 20.799999 44.949997 18.25 45.25C 18.700001 43.900002 17.950001 42.25 18.25 40.75C 18.4 40 18.85 39.25 19.75 39.25M 36.25 22.599998C 36.400002 22.450001 36.699997 22 36.400002 21.700001C 36.25 21.549999 36.099998 21.25 35.650002 21.25C 34.75 21.4 33.849998 20.950001 32.950001 21.25C 32.650002 20.5 32.049999 19.6 32.049999 18.700001C 32.049999 18.4 31.599998 18.1 31.450001 18.25C 31.150002 18.4 30.849998 18.549999 30.700001 18.700001C 30.099998 19.450001 29.950001 20.35 29.799999 21.25C 28.900002 21.4 27.849998 21.1 27.099998 21.25C 26.650002 21.25 26.349998 21.4 26.349998 21.700001C 26.200001 22 26.349998 22.299999 26.5 22.599998C 27.099998 23.349998 28 23.650002 28.599998 24.400002C 28.299999 25.450001 27.400002 26.349998 27.400002 27.400002C 27.400002 27.700001 27.400002 28 27.549999 28.299999C 27.849998 28.599998 28.299999 28.599998 28.450001 28.299999C 29.200001 27.549999 30.549999 27.400002 31.299999 26.650002C 32.349998 27.25 33.549999 27.400002 34.300003 28.299999C 34.449997 28.599998 34.900002 28.450001 35.199997 28.299999C 35.349998 28.150002 35.349998 27.700001 35.349998 27.400002C 35.199997 26.349998 34.900002 25.150002 34.150002 24.400002C 34.900002 23.799999 35.650002 23.349998 36.25 22.599998"></path></g></g></g><g id="g-root-tx_aipowere_1d156bp1gipv5y-stroke" data-item-order="0" transform="translate(209, 38)"></g><g id="g-root-tx_usersign_1cy0w1x1giwwem-stroke" data-item-order="0" transform="translate(92, 344)"></g><g id="g-root-tx_frontend_qrjuit1giwwe8-stroke" data-item-order="0" transform="translate(212, 344)"></g><g id="g-root-tx_usertype_4l2szp1giwvm2-stroke" data-item-order="0" transform="translate(338, 344)"></g><g id="g-root-tx_backendr_18k2t6t1giww78-stroke" data-item-order="0" transform="translate(452, 344)"></g><g id="g-root-tx_backendu_mdlrnp1giwvf2-stroke" data-item-order="0" transform="translate(572, 344)"></g><g id="g-root-tx_frontend_74q4l1giwveo-stroke" data-item-order="0" transform="translate(704, 344)"></g><g id="g-root-tx_theusera_v7dcn91giwvlz-stroke" data-item-order="0" transform="translate(86, 398)"></g><g id="g-root-tx_theuseri_1lvjbk51giwumb-stroke" data-item-order="0" transform="translate(332, 386)"></g><g id="g-root-tx_thefront_dgpt8l1giwutd-stroke" data-item-order="0" transform="translate(218, 398)"></g><g id="g-root-tx_thebacke_zp2a111giwtu5-stroke" data-item-order="0" transform="translate(446, 410)"></g><g id="g-root-tx_thebacke_92rqdh1giwtu7-stroke" data-item-order="0" transform="translate(566, 398)"></g><g id="g-root-ic_logo_74q4l1gir7k9-stroke" data-item-order="0" transform="translate(122, 278)"><g id="ic_logo_74q4l1gir7k9-stroke" fill="none" stroke-linecap="round" stroke-linejoin="round" stroke-miterlimit="4" stroke="#484848" stroke-width="2" stroke-opacity="1"><g><path d="M 21.25 45.25L 22 36.25L 25.75 36.25L 25.75 31C 25.75 26.857864 22.392136 23.5 18.25 23.5C 14.107864 23.5 10.75 26.857864 10.75 31L 10.75 36.25L 14.5 36.25L 15.25 45.25ZM 13 16C 13 18.899494 15.350506 21.25 18.25 21.25C 21.149494 21.25 23.5 18.899494 23.5 16C 23.5 13.100505 21.149494 10.75 18.25 10.75C 15.350506 10.75 13 13.100505 13 16ZM 40.75 27.25L 45.25 22.75L 40.75 18.25M 30.25 22.75L 45.25 22.75M 21.25 45.25C 22.599998 42.550003 22.299999 39.25 22 36.25C 23.200001 36.400002 24.549999 35.949997 25.75 36.25C 25.450001 34.599998 26.200001 32.650002 25.75 31C 24.700001 26.950001 22.150002 24.849998 18.25 23.5C 14.35 22.150002 11.5 26.950001 10.75 31C 10.45 32.650002 11.05 34.599998 10.75 36.25C 11.95 35.949997 13.3 35.800003 14.5 36.25C 13.9 39.25 14.65 42.25 15.25 45.25C 17.200001 44.949997 19.299999 45.400002 21.25 45.25M 13 16C 13.3 18.85 15.4 20.65 18.25 21.25C 21.1 21.85 22.450001 18.700001 23.5 16C 24.549999 13.3 21.1 11.05 18.25 10.75C 15.4 10.45 13 13.15 13 16M 40.75 27.25C 42.400002 25.900002 43.900002 24.400002 45.25 22.75C 44.199997 20.950001 42.099998 19.9 40.75 18.25M 30.25 22.75C 35.199997 23.5 40.449997 21.549999 45.25 22.75"></path></g></g></g></g></g><path id="wqu1b2t1dr0vta" d="M65.283 12.757a.35.35 0 0 0 .584.157l5.203-5.141-6.183 3.523.396 1.461zm-2.216-11.7a.35.35 0 0 0-.522.305v3.111l3.276-1.868-2.754-1.548zm3.728 2.105l-4.25 2.421v2.445l6.391-3.644-2.141-1.222zm4.708 3.303a.35.35 0 0 0 0-.609l-1.592-.9-7.365 4.199v1.782a.35.35 0 0 0 .523.305l8.435-4.777z M44.542 2.513c0-.433.355-.783.792-.783s.792.35.792.783-.355.783-.792.783-.792-.35-.792-.783zm59.171 0c0-.433.355-.783.792-.783s.792.35.792.783-.355.783-.792.783-.792-.35-.792-.783zm-85.951 7.636h-1.27v-.487c-.276.201-.864.609-1.881.609-1.202 0-2.274-.794-2.137-2.078.118-1.106 1.153-1.584 1.848-1.727l2.17-.345c0-.539-.29-.956-1.064-1.006s-1.21.305-1.571 1.017l-1.124-.605c1.218-2.631 5.029-1.764 5.029.414v4.207zm-1.27-2.86c.006.396-.062 1.112-.819 1.59-.587.37-1.841.299-1.903-.395-.049-.555.461-.791.906-.898l1.816-.297zm72.662 2.86h-1.27v-.487c-.276.201-.864.609-1.881.609-1.202 0-2.274-.794-2.137-2.078.118-1.106 1.153-1.584 1.848-1.727l2.17-.345c0-.539-.29-.956-1.064-1.006s-1.21.305-1.571 1.017l-1.124-.605c1.218-2.631 5.029-1.764 5.029.414v4.207zm-1.27-2.86c.006.396-.062 1.112-.82 1.59-.587.37-1.841.299-1.903-.395-.049-.555.461-.791.906-.898l1.816-.297zM99.096 10.149H97.85v-8.45h1.246v4.895l2.68-2.559h1.738l-2.633 2.535 2.715 3.578h-1.556l-2.077-2.707-.867.844v1.863zm6.053-6.114h-1.255v6.113h1.255V4.035zm-59.2 0h-1.255v6.113h1.255V4.035zm5.584 6.113V1.697h1.255v2.695c.361-.346 1-.485 1.47-.485 1.452 0 2.477 1.082 2.457 2.448v3.792h-1.27v-3.68c0-.408-.214-1.339-1.315-1.339-.968 0-1.342.756-1.342 1.339v3.681h-1.255zm-4.76-4.894V4.039h.621a.45.45 0 0 0 .45-.45v-.855h1.251v1.305h1.309v1.215h-1.309v3.109c0 .293.105.664.648.664.365 0 .531-.035.736-.07v1.137s-.361.113-.857.113c-1.398 0-1.777-1.051-1.777-1.788V5.254h-1.071zM36.528 4.039h-1.394l2.191 6.106h1.125l1.234-3.918 1.238 3.918h1.129l2.188-6.106h-1.383l-1.359 3.93-1.256-3.93h-1.124l-1.242 3.957-1.348-3.957zM26.212 7.141c-.02 1.566 1.187 3.129 3.223 3.129 1.566 0 2.383-.918 2.734-1.719L31.172 8c-.315.399-.801 1.094-1.738 1.094-1.145 0-1.825-.781-1.891-1.52h4.625c.074-.284.148-.995-.03-1.559-.336-1.064-1.221-2.102-2.839-2.102s-3.088 1.152-3.088 3.227zm1.363-.75h3.348c-.055-.43-.566-1.301-1.623-1.301a1.79 1.79 0 0 0-1.725 1.301zm-8.758.75c.038 1.758 1.277 3.133 3.145 3.133 1.074 0 1.723-.477 1.961-.672v.547h1.242V1.703h-1.258v2.888c-.414-.36-1.062-.68-1.93-.68-1.91 0-3.198 1.473-3.16 3.23zm1.309-.08c0 1.119.723 1.978 1.836 1.978a1.88 1.88 0 0 0 1.94-1.904c0-1.371-1.011-1.99-1.972-1.99s-1.805.798-1.805 1.916zm76.683-.028C96.771 5.275 95.532 3.9 93.664 3.9c-1.074 0-1.723.477-1.961.672v-.547h-1.242v8.22h1.258V9.583c.414.36 1.063.68 1.93.68 1.91 0 3.198-1.473 3.16-3.23zm-1.309.08c0-1.119-.723-1.978-1.836-1.978a1.88 1.88 0 0 0-1.94 1.904c0 1.371 1.011 1.99 1.972 1.99S95.5 8.231 95.5 7.113zM106.441 10.173V4.036h1.254v.382c.361-.346 1-.485 1.47-.485 1.452 0 2.477 1.082 2.457 2.448v3.792h-1.27V6.492c0-.408-.214-1.339-1.315-1.339-.969 0-1.342.756-1.342 1.339v3.681h-1.254zm-30.383-.021V1.824h1.084l4.215 5.777V1.824h1.32v8.328h-1.094l-4.207-5.796v5.796h-1.319zM5.24 10.149H4V2.377h1.014l2.664 3.597 2.654-3.592h1.03v7.766h-1.256V4.762L7.678 8.068 5.24 4.742v5.407z" transform="translate(17, 485)" fill="#80808088" stroke="none"></path></svg>